#N canvas 1645 702 450 300 12;
#X obj 121 73 bendin;
#X obj 120 162 bendout;
#X obj 185 74 notein;
#X obj 185 100 sel 7 8;
#X msg 185 123 7, f 1;
#X msg 208 124 8, f 1;
#X floatatom 194 162 5 0 0 0 - - -;
#X obj 121 103 - 8192;
#X connect 0 0 7 0;
#X connect 2 0 3 0;
#X connect 3 0 4 0;
#X connect 3 1 5 0;
#X connect 4 0 1 1;
#X connect 4 0 6 0;
#X connect 5 0 1 1;
#X connect 5 0 6 0;
#X connect 7 0 1 0;
